<svg width="1600" height="900" viewBox="0 0 1600 900" fill="none" xmlns="http://www.w3.org/2000/svg">
  <defs>
    <linearGradient id="bg" x1="0" y1="0" x2="1600" y2="900" gradientUnits="userSpaceOnUse">
      <stop offset="0" stop-color="#F2F7FF"/>
      <stop offset="0.52" stop-color="#E8F1FF"/>
      <stop offset="1" stop-color="#F8FBFF"/>
    </linearGradient>
    <linearGradient id="shapeA" x1="1360" y1="80" x2="780" y2="680" gradientUnits="userSpaceOnUse">
      <stop offset="0" stop-color="#A8C8F4" stop-opacity="0.44"/>
      <stop offset="1" stop-color="#5F93D6" stop-opacity="0.12"/>
    </linearGradient>
    <linearGradient id="shapeB" x1="420" y1="760" x2="980" y2="380" gradientUnits="userSpaceOnUse">
      <stop offset="0" stop-color="#BFD8F8" stop-opacity="0.28"/>
      <stop offset="1" stop-color="#7FADE6" stop-opacity="0.08"/>
    </linearGradient>
    <filter id="blurLarge" x="640" y="-60" width="1060" height="980" filterUnits="userSpaceOnUse" color-interpolation-filters="sRGB">
      <feGaussianBlur stdDeviation="60"/>
    </filter>
    <filter id="blurSmall" x="-120" y="300" width="1020" height="760" filterUnits="userSpaceOnUse" color-interpolation-filters="sRGB">
      <feGaussianBlur stdDeviation="42"/>
    </filter>
    <pattern id="grid" width="48" height="48" patternUnits="userSpaceOnUse">
      <path d="M48 0H0V48" stroke="#D2E3F8" stroke-opacity="0.4" stroke-width="1"/>
    </pattern>
  </defs>

  <rect width="1600" height="900" fill="url(#bg)"/>
  <rect width="1600" height="900" fill="url(#grid)"/>

  <g filter="url(#blurLarge)">
    <path d="M760 260C860 120 1050 70 1230 120C1420 170 1540 340 1460 520C1380 700 1150 820 930 770C700 720 620 460 760 260Z" fill="url(#shapeA)"/>
  </g>

  <g filter="url(#blurSmall)">
    <path d="M120 760C250 610 430 530 620 560C800 590 860 760 770 880C690 990 520 1040 350 1010C170 970 20 880 120 760Z" fill="url(#shapeB)"/>
  </g>

  <circle cx="1180" cy="240" r="220" fill="#C5DBF8" fill-opacity="0.18"/>
  <circle cx="300" cy="820" r="170" fill="#D7E7FB" fill-opacity="0.2"/>
</svg>
